# xmcd CD database file
#
# Track frame offsets:
#	150
#	39731
#	83210
#	113058
#	147494
#	196386
#	239565
#
# Disc length: 3720 seconds
#
# Revision: 0
# Processed by: cddbd v1.5.2PL0 Copyright (c) Steve Scherf et al.
# Submitted via: CDex 1.51
#
DISCID=620e8607
DTITLE=Russell Malone - Live At Jazz Standard Volume One
DYEAR=2006
DGENRE=Jazz
TTITLE0=He Said What?
TTITLE1=I Saw You Do It
TTITLE2=Flirt
TTITLE3=Blue Daniel
TTITLE4=Mean Streak
TTITLE5=Heartstrings
TTITLE6=Malone Blues
EXTD=YEAR: 2006
EXTT0=
EXTT1=
EXTT2=
EXTT3=
EXTT4=
EXTT5=
EXTT6=
PLAYORDER=
